<svg preserveAspectRatio="none" width="100%" height="100%" overflow="visible" style="display: block;" viewBox="0 0 26.1712 26.1707" fill="none" xmlns="http://www.w3.org/2000/svg">
<g id="Discount">
<path id="Stroke 1" d="M3.47635 6.49151C3.47635 4.82618 4.82569 3.47685 6.49102 3.47551H7.86302C8.65902 3.47551 9.42168 3.15951 9.98702 2.59951L10.9457 1.63951C12.1204 0.458179 14.0297 0.452845 15.211 1.62751L15.2124 1.62885L15.2244 1.63951L16.1844 2.59951C16.7497 3.16085 17.5124 3.47551 18.3084 3.47551H19.679C21.3444 3.47551 22.695 4.82485 22.695 6.49151V7.86085C22.695 8.65685 23.0097 9.42085 23.571 9.98618L24.531 10.9462C25.7124 12.1208 25.719 14.0302 24.5444 15.2115L24.543 15.2128L24.531 15.2248L23.571 16.1848C23.0097 16.7488 22.695 17.5115 22.695 18.3075V19.6795C22.695 21.3448 21.3457 22.6942 19.6804 22.6942H19.679H18.3057C17.5097 22.6942 16.7457 23.0102 16.1817 23.5715L15.2217 24.5302C14.0484 25.7115 12.1404 25.7182 10.959 24.5462C10.9577 24.5448 10.9564 24.5435 10.955 24.5422L10.943 24.5302L9.98435 23.5715C9.42035 23.0102 8.65635 22.6955 7.86035 22.6942H6.49102C4.82569 22.6942 3.47635 21.3448 3.47635 19.6795V18.3048C3.47635 17.5088 3.16035 16.7462 2.59902 16.1822L1.64035 15.2222C0.459018 14.0488 0.452352 12.1408 1.62568 10.9595C1.62568 10.9582 1.62702 10.9568 1.62835 10.9555L1.64035 10.9435L2.59902 9.98351C3.16035 9.41818 3.47635 8.65551 3.47635 7.85818V6.49151" stroke="var(--stroke-0, black)" stroke-opacity="0.7" stroke-width="1.5" stroke-linecap="round" stroke-linejoin="round"/>
<path id="Stroke 3" d="M9.65862 16.5124L16.512 9.65911" stroke="var(--stroke-0, black)" stroke-opacity="0.7" stroke-width="1.5" stroke-linecap="round" stroke-linejoin="round"/>
<path id="Stroke 11" d="M16.4105 16.4168H16.4225" stroke="var(--stroke-0, black)" stroke-opacity="0.7" stroke-width="2" stroke-linecap="round" stroke-linejoin="round"/>
<path id="Stroke 11_2" d="M9.74382 9.75018H9.75582" stroke="var(--stroke-0, black)" stroke-opacity="0.7" stroke-width="2" stroke-linecap="round" stroke-linejoin="round"/>
</g>
</svg>
