<svg width="419" height="455" viewBox="0 0 419 455" fill="none" xmlns="http://www.w3.org/2000/svg">
<g id="Frame 18143523">
<g id="Frame 18143540">
<g id="Subtract" filter="url(#filter0_d_13_3)">
<path d="M414.3 448.6H414.284C414.294 448.424 414.3 448.247 414.3 448.069C414.299 442.287 409.612 437.6 403.83 437.6C398.048 437.6 393.36 442.287 393.359 448.069C393.359 448.247 393.366 448.424 393.375 448.6H386.474C386.483 448.424 386.489 448.247 386.489 448.069C386.489 442.287 381.801 437.6 376.019 437.6C370.236 437.6 365.549 442.287 365.549 448.069C365.549 448.247 365.555 448.424 365.564 448.6H358.662C358.671 448.424 358.678 448.247 358.678 448.069C358.677 442.287 353.989 437.6 348.207 437.6C342.425 437.6 337.738 442.287 337.737 448.069C337.737 448.247 337.744 448.424 337.753 448.6H330.851C330.86 448.424 330.866 448.247 330.866 448.069C330.866 442.287 326.178 437.6 320.396 437.6C314.613 437.6 309.926 442.287 309.926 448.069C309.926 448.247 309.932 448.424 309.941 448.6H303.039C303.048 448.424 303.055 448.248 303.055 448.07C303.054 442.288 298.366 437.6 292.584 437.6C286.802 437.6 282.114 442.288 282.114 448.07C282.114 448.248 282.121 448.424 282.13 448.6H275.228C275.237 448.424 275.243 448.248 275.243 448.07C275.243 442.288 270.555 437.6 264.772 437.6C258.99 437.6 254.303 442.288 254.303 448.07C254.303 448.248 254.309 448.424 254.318 448.6H247.416C247.425 448.424 247.432 448.247 247.432 448.069C247.431 442.287 242.744 437.6 236.962 437.6C231.18 437.6 226.492 442.287 226.491 448.069C226.491 448.247 226.498 448.424 226.507 448.6H219.604C219.614 448.424 219.62 448.247 219.62 448.069C219.62 442.287 214.932 437.6 209.15 437.6C203.368 437.6 198.68 442.287 198.68 448.069C198.68 448.247 198.686 448.424 198.695 448.6H191.793C191.802 448.424 191.809 448.247 191.809 448.069C191.808 442.287 187.121 437.6 181.339 437.6C175.557 437.6 170.869 442.287 170.868 448.069C170.868 448.247 170.874 448.424 170.884 448.6H163.981C163.991 448.424 163.997 448.247 163.997 448.069C163.997 442.287 159.309 437.6 153.527 437.6C147.745 437.6 143.058 442.287 143.058 448.069C143.058 448.247 143.064 448.424 143.073 448.6H136.17C136.179 448.424 136.186 448.248 136.186 448.07C136.185 442.288 131.498 437.6 125.716 437.6C119.933 437.6 115.245 442.288 115.245 448.07C115.245 448.248 115.251 448.424 115.261 448.6H108.358C108.368 448.424 108.374 448.248 108.374 448.07C108.374 442.288 103.687 437.6 97.9043 437.6C92.1219 437.6 87.4338 442.288 87.4336 448.07C87.4336 448.248 87.4399 448.424 87.4492 448.6H80.5479C80.5572 448.424 80.5635 448.247 80.5635 448.069C80.563 442.287 75.8749 437.6 70.0928 437.6C64.3107 437.6 59.6235 442.287 59.623 448.069C59.623 448.247 59.6293 448.424 59.6387 448.6H52.7363C52.7457 448.424 52.752 448.247 52.752 448.069C52.7515 442.287 48.0634 437.6 42.2812 437.6C36.4992 437.6 31.812 442.287 31.8115 448.069C31.8115 448.247 31.8178 448.424 31.8271 448.6H24.9248C24.9341 448.424 24.9404 448.247 24.9404 448.069C24.9401 442.287 20.252 437.6 14.4697 437.6C8.68763 437.6 4.00036 442.287 4 448.069C4 448.247 4.0063 448.424 4.01562 448.6H4V2H414.3V448.6Z" fill="url(#paint1_linear_13_3)"/>
</g>
</g>
</g>
<defs>
<filter id="filter0_d_13_3" x="0" y="0" width="418.3" height="454.6" filterUnits="userSpaceOnUse" color-interpolation-filters="sRGB">
<feFlood flood-opacity="0" result="BackgroundImageFix"/>
<feColorMatrix in="SourceAlpha" type="matrix" values="0 0 0 0 0 0 0 0 0 0 0 0 0 0 0 0 0 0 127 0" result="hardAlpha"/>
<feOffset dy="2"/>
<feGaussianBlur stdDeviation="2"/>
<feComposite in2="hardAlpha" operator="out"/>
<feColorMatrix type="matrix" values="0 0 0 0 0 0 0 0 0 0 0 0 0 0 0 0 0 0 0.15 0"/>
<feBlend mode="normal" in2="BackgroundImageFix" result="effect1_dropShadow_13_3"/>
<feBlend mode="normal" in="SourceGraphic" in2="effect1_dropShadow_13_3" result="shape"/>
</filter>
<linearGradient id="paint0_linear_13_3" x1="756" y1="0" x2="756" y2="6787" gradientUnits="userSpaceOnUse">
<stop stop-color="white"/>
<stop offset="1" stop-color="#B26025"/>
</linearGradient>
<linearGradient id="paint1_linear_13_3" x1="209.15" y1="2" x2="209.15" y2="448.6" gradientUnits="userSpaceOnUse">
<stop stop-color="white"/>
<stop offset="1" stop-color="#F8F6F4"/>
</linearGradient>
</defs>
</svg>
