<svg preserveAspectRatio="none" width="100%" height="100%" overflow="visible" style="display: block;" viewBox="0 0 32 32" fill="none" xmlns="http://www.w3.org/2000/svg">
<g id="Frame 18143528">
<path id="Vector" d="M24.4 21.25L29.65 16L24.4 10.75M29.65 16H11.7344M20.2 10.75V8.125C20.2 7.42881 19.9234 6.76113 19.4312 6.26884C18.9389 5.77656 18.2712 5.5 17.575 5.5H4.975C4.27881 5.5 3.61113 5.77656 3.11884 6.26884C2.62656 6.76113 2.35 7.42881 2.35 8.125V23.875C2.35 24.5712 2.62656 25.2389 3.11884 25.7312C3.61113 26.2234 4.27881 26.5 4.975 26.5H17.575C18.2712 26.5 18.9389 26.2234 19.4312 25.7312C19.9234 25.2389 20.2 24.5712 20.2 23.875V21.25V10.75Z" stroke="var(--stroke-0, black)" stroke-opacity="0.7" stroke-width="1.5" stroke-linecap="round" stroke-linejoin="round"/>
</g>
</svg>
