<svg width="64" height="64" viewBox="0 0 64 64" fill="none" xmlns="http://www.w3.org/2000/svg">

<g id="Frame 18143523">
<g id="Frame 18143540">
<g id="Frame 18143543">
<g id="Money">
<rect width="60" height="60" transform="translate(4.14014) rotate(3.95655)" fill="white" fill-opacity="0.01"/>
<g id="Vector">
<path d="M57.4099 45.0328L5.03502 41.4103L4.77627 45.1513L57.1511 48.7738L57.4099 45.0328Z" fill="black" fill-opacity="0.1"/>
<path d="M56.8924 52.5149L4.51752 48.8924L4.25877 52.6335L56.6336 56.256L56.8924 52.5149Z" fill="black" fill-opacity="0.1"/>
<path d="M47.7392 21.8102C46.9993 21.759 46.2608 21.9284 45.6172 22.2969C44.9735 22.6654 44.4536 23.2165 44.1232 23.8805C43.7928 24.5445 43.6666 25.2916 43.7608 26.0273C43.855 26.763 44.1652 27.4542 44.6522 28.0136C45.1392 28.573 45.7811 28.9754 46.4968 29.1699C47.2125 29.3645 47.9699 29.3424 48.673 29.1065C49.3762 28.8707 49.9937 28.4316 50.4473 27.8448C50.9009 27.258 51.1703 26.5499 51.2215 25.81C51.2901 24.8178 50.9618 23.839 50.3088 23.0889C49.6557 22.3387 48.7314 21.8788 47.7392 21.8102Z" fill="black" fill-opacity="0.1"/>
<path d="M31.9987 31.9983C30.5189 31.896 29.1026 31.3571 27.9291 30.4499C26.7555 29.5426 25.8773 28.3077 25.4056 26.9014C24.9338 25.495 24.8897 23.9804 25.2788 22.549C25.6679 21.1176 26.4727 19.8337 27.5915 18.8596C28.7102 17.8856 30.0927 17.2652 31.5641 17.0769C33.0354 16.8886 34.5296 17.1408 35.8576 17.8017C37.1856 18.4625 38.2878 19.5024 39.0249 20.7897C39.7619 22.077 40.1007 23.5539 39.9983 25.0337C39.8589 27.0173 38.9384 28.8645 37.4387 30.1702C35.9389 31.4758 33.9826 32.1333 31.9987 31.9983ZM32.775 20.7752C32.035 20.724 31.2966 20.8934 30.6529 21.2619C30.0093 21.6304 29.4894 22.1815 29.1589 22.8455C28.8285 23.5095 28.7024 24.2566 28.7966 24.9923C28.8907 25.728 29.2009 26.4192 29.6879 26.9786C30.1749 27.538 30.8169 27.9404 31.5326 28.1349C32.2483 28.3295 33.0056 28.3074 33.7088 28.0715C34.412 27.8357 35.0294 27.3966 35.483 26.8098C35.9367 26.223 36.2061 25.5149 36.2573 24.775C36.3249 23.783 35.9962 22.8048 35.3433 22.0549C34.6905 21.305 33.7668 20.8448 32.775 20.7752Z" fill="black" fill-opacity="0.1"/>
<path d="M17.8107 19.7402C17.0708 19.689 16.3323 19.8584 15.6887 20.2269C15.045 20.5954 14.5251 21.1465 14.1947 21.8105C13.8643 22.4745 13.7381 23.2216 13.8323 23.9573C13.9265 24.693 14.2367 25.3842 14.7237 25.9436C15.2107 26.503 15.8526 26.9054 16.5683 27.0999C17.284 27.2945 18.0414 27.2724 18.7445 27.0365C19.4477 26.8007 20.0652 26.3616 20.5188 25.7748C20.9724 25.188 21.2418 24.4799 21.293 23.74C21.3616 22.7478 21.0333 21.769 20.3803 21.0189C19.7272 20.2687 18.8029 19.8088 17.8107 19.7402Z" fill="black" fill-opacity="0.1"/>
<path d="M53.9276 41.033L9.03484 37.928C8.04359 37.8569 7.12082 37.3962 6.46827 36.6467C5.81571 35.8972 5.48647 34.9198 5.55252 33.9282L7.10502 11.4818C7.17611 10.4905 7.63678 9.56777 8.38631 8.91521C9.13583 8.26266 10.1132 7.93342 11.1048 7.99947L55.9976 11.1045C56.9888 11.1756 57.9116 11.6362 58.5642 12.3858C59.2167 13.1353 59.5459 14.1127 59.4799 15.1043L57.9274 37.5507C57.8575 38.5423 57.3971 39.4658 56.6473 40.1186C55.8975 40.7714 54.9195 41.1002 53.9276 41.033ZM55.7388 14.8455L10.8461 11.7405L9.29358 34.1869L54.1863 37.2919L55.7388 14.8455Z" fill="black" fill-opacity="0.1"/>
</g>
</g>
</g>
</g>
</g>
<defs>
<linearGradient id="paint0_linear_13_3" x1="756" y1="0" x2="756" y2="6787" gradientUnits="userSpaceOnUse">
<stop stop-color="white"/>
<stop offset="1" stop-color="#B26025"/>
</linearGradient>
</defs>
</svg>
