<svg preserveAspectRatio="none" width="100%" height="100%" overflow="visible" style="display: block;" viewBox="0 0 32 32" fill="none" xmlns="http://www.w3.org/2000/svg">
<g id="Line Duotone / Security / Shield Cross">
<path id="Vector" d="M4 13.8889C4 9.62543 4 7.4937 4.50335 6.77655C5.00671 6.05939 7.0111 5.37328 11.0199 4.00106L11.7836 3.73962C13.8733 3.02432 14.9181 2.66667 16 2.66667C17.0819 2.66667 18.1267 3.02432 20.2164 3.73962L20.9801 4.00106C24.9889 5.37328 26.9933 6.05939 27.4966 6.77655C28 7.4937 28 9.62543 28 13.8889C28 14.5329 28 15.2312 28 15.9885C28 23.5059 22.348 27.154 18.8019 28.703C17.84 29.1232 17.359 29.3333 16 29.3333C14.641 29.3333 14.16 29.1232 13.1981 28.703C9.65195 27.154 4 23.5059 4 15.9885C4 15.2312 4 14.5329 4 13.8889Z" stroke="var(--stroke-0, black)" stroke-opacity="0.7" stroke-width="1.5"/>
<path id="Vector_2" d="M19.3333 12.6667L12.6667 19.3333M12.6667 12.6666L19.3333 19.3333" stroke="var(--stroke-0, black)" stroke-opacity="0.7" stroke-width="1.5" stroke-linecap="round"/>
</g>
</svg>
