<svg preserveAspectRatio="none" width="100%" height="100%" overflow="visible" style="display: block;" viewBox="0 0 87.6556 25.8048" fill="none" xmlns="http://www.w3.org/2000/svg">
<g id="Frame 18143546">
<path id="Union" d="M31.5117 8.4172C36.3659 8.4172 38.4658 11.2233 38.7285 13.9319C38.761 14.1282 38.7607 14.3224 38.7607 14.5188L28.627 17.5539C29.6429 20.5235 32.4301 21.4044 34.4316 21.4045C36.2683 21.4045 37.8753 20.8823 38.8262 20.0334C38.4984 23.4936 36.101 25.7121 31.6094 25.7121C27.1178 25.712 23.2471 22.4476 23.2471 17.3244C23.2473 11.8753 27.0181 8.41735 31.5117 8.4172ZM11.4561 0.0929829C16.5426 0.0929829 20.016 3.06556 21.2773 4.69845V25.386H15.7266V7.34201C15.7266 7.34201 14.3872 3.4438 9.84375 3.44357C7.80965 3.44357 6.01379 4.80597 6.01367 6.57052C6.01367 8.6828 7.58975 10.1944 10.3184 10.1945H12.2881V13.4416H7.98242V25.386H2.43164V13.4416H0V10.2248L2.42773 10.217C0.955862 5.21691 4.98901 0.093142 11.4561 0.0929829ZM51.5264 8.41525C54.2485 8.41545 56.4453 10.1457 56.4453 14.1262V25.384H50.9355V15.8889C50.9355 13.4094 49.8847 12.137 47.6553 12.1369C47.13 12.1369 46.7021 12.2359 46.2441 12.3654V25.386H40.7344V9.06955L46.2441 8.44943V11.6486C47.03 9.98346 48.6385 8.41731 51.5234 8.4172L51.5264 8.41525ZM66.0254 8.74337H70.4521V11.6809H66.0254V25.385H60.5156V11.6809H57.9561V8.74337H60.5156V4.50119L66.0254 3.84884V8.74337ZM31.0215 10.9963C29.415 10.9963 28.2344 12.5946 28.2344 14.9445H33.416C33.6461 12.0396 32.4977 10.9964 31.0215 10.9963Z" fill="var(--fill-0, black)"/>
<path id="Rectangle 32" d="M79.0539 1.41144e-05L74.1387 2.10224V25.8048H79.0539V1.41144e-05Z" fill="var(--fill-0, black)"/>
<path id="Rectangle 33" d="M87.6555 1.41144e-05L82.7403 2.10224V25.8048H87.6555V1.41144e-05Z" fill="var(--fill-0, black)"/>
</g>
</svg>
