<svg preserveAspectRatio="none" width="100%" height="100%" overflow="visible" style="display: block;" viewBox="0 0 125 45.4541" fill="none" xmlns="http://www.w3.org/2000/svg">
<path id="Union" d="M55.9102 14.7695C64.5226 14.7695 68.2476 19.7472 68.7139 24.5527C68.7716 24.9015 68.7715 25.247 68.7715 25.5957L50.791 30.9795C52.5937 36.2488 57.5395 37.8125 61.0908 37.8125C64.3494 37.8125 67.1996 36.885 68.8867 35.3789C68.3051 41.518 64.0531 45.4539 56.084 45.4541C48.1146 45.4541 41.2461 39.6633 41.2461 30.5732C41.2462 20.9047 47.937 14.7695 55.9102 14.7695ZM91.4199 14.7656C96.25 14.7657 100.148 17.8357 100.148 24.8984V44.8721H90.3721V28.0254C90.3721 23.626 88.5075 21.3691 84.5518 21.3691C83.6199 21.3692 82.8613 21.5455 82.0488 21.7754V44.876H72.2725V15.9268L82.0488 14.8271V20.5029C83.4432 17.5483 86.297 14.7695 91.416 14.7695L91.4199 14.7656ZM20.3262 0C29.3508 0 35.5139 5.27272 37.752 8.16992V44.875H27.9023V12.8613C27.9023 12.8613 25.5263 5.9436 17.4648 5.94336C13.8557 5.94336 10.6699 8.36224 10.6699 11.4932C10.6701 15.2408 13.4663 17.9227 18.3076 17.9229H21.8018V23.6836H14.1631V44.875H4.31445V23.6836H0V17.9766L4.30664 17.9619C1.69513 9.09034 8.85174 7.08254e-05 20.3262 0ZM117.146 15.3477H125V20.5596H117.146V44.875H107.37V20.5596H102.829V15.3477H107.37V7.82129L117.146 6.66406V15.3477ZM55.04 19.3447C52.1897 19.3447 50.0938 22.1811 50.0938 26.3506H59.2881C59.6964 21.1965 57.6591 19.3449 55.04 19.3447Z" fill="var(--fill-0, white)" fill-opacity="1"/>
</svg>
