<svg preserveAspectRatio="none" width="100%" height="100%" overflow="visible" style="display: block;" viewBox="0 0 21.0796 21.1838" fill="none" xmlns="http://www.w3.org/2000/svg">
<g id="Group">
<path id="Vector" d="M20.6788 5.29595L11.376 0.209051C10.8534 -0.0696835 10.2262 -0.0696835 9.7036 0.209051L0.400845 5.29595C0.0872692 5.47016 -0.0520979 5.81857 0.0175856 6.16699C0.0872692 6.51541 0.435687 6.79414 0.784104 6.79414H1.68999V16.4802C1.13252 16.8634 0.784104 17.4906 0.784104 18.2222V19.0236C0.784104 20.2082 1.75967 21.1838 2.94429 21.1838H18.1353C19.3199 21.1838 20.2955 20.2082 20.2955 19.0236V18.2222C20.2955 17.4906 19.9471 16.8634 19.3896 16.4802V6.79414H20.2955C20.6439 6.79414 20.9575 6.55025 21.062 6.20183C21.1317 5.85342 20.9923 5.47016 20.6788 5.29595ZM10.4701 1.56788C10.505 1.53304 10.5746 1.53304 10.6095 1.56788L17.2294 5.22626H3.85018L10.4701 1.56788ZM6.533 16.0272V6.79414H14.3376V16.0621H6.533V16.0272ZM4.96512 6.79414V16.0621H3.25787V6.79414H4.96512ZM18.7625 19.0236C18.7625 19.372 18.4837 19.6508 18.1353 19.6508H2.94429C2.59588 19.6508 2.31714 19.372 2.31714 19.0236V18.2222C2.31714 17.8738 2.59588 17.5951 2.94429 17.5951H18.1353C18.4837 17.5951 18.7625 17.8738 18.7625 18.2222V19.0236V19.0236ZM17.8566 16.0272H15.9054V6.79414H17.8566V16.0272Z" fill="var(--fill-0, white)" fill-opacity="0.5"/>
<path id="Vector_2" d="M10.7837 10.6266H9.84298C9.66877 10.6266 9.5294 10.4872 9.5294 10.313C9.5294 10.1388 9.66877 9.99944 9.84298 9.99944H11.8986C12.3167 9.99944 12.6652 9.65102 12.6652 9.23292C12.6652 8.81482 12.3167 8.4664 11.8986 8.4664H11.4109V8.29219C11.4109 7.87409 11.0624 7.52567 10.6443 7.52567C10.2262 7.52567 9.87782 7.87409 9.87782 8.29219V8.4664C8.83256 8.4664 7.99636 9.3026 7.99636 10.3479C7.99636 11.3931 8.83256 12.2293 9.87782 12.2293H10.8185C10.9928 12.2293 11.1321 12.3687 11.1321 12.5429C11.1321 12.7171 10.9928 12.8565 10.8185 12.8565H8.76288C8.34478 12.8565 7.99636 13.2049 7.99636 13.623C7.99636 14.0411 8.34478 14.3895 8.76288 14.3895H9.84298V14.5637C9.84298 14.9818 10.1914 15.3302 10.6095 15.3302C11.0276 15.3302 11.376 14.9818 11.376 14.5637V14.285C12.1077 14.0411 12.6303 13.3442 12.6303 12.508C12.6652 11.4628 11.829 10.6266 10.7837 10.6266Z" fill="var(--fill-0, white)" fill-opacity="0.5"/>
</g>
</svg>
