<svg width="172" height="63" viewBox="0 0 172 63" fill="none" xmlns="http://www.w3.org/2000/svg">
<g id="Frame 2">
<g id="Frame 4">
<path id="Union" d="M76.9336 20.3232C88.7844 20.3234 93.9095 27.1736 94.5508 33.7861C94.6302 34.2658 94.6309 34.7401 94.6309 35.2197L69.8896 42.6289C72.3701 49.8793 79.1748 52.0311 84.0615 52.0312C88.5453 52.0312 92.4676 50.7549 94.7891 48.6826C93.9887 57.1302 88.1377 62.5459 77.1719 62.5459C66.206 62.5459 56.756 54.5782 56.7559 42.0703C56.7559 28.766 65.9623 20.3232 76.9336 20.3232ZM125.795 20.3184C132.441 20.3184 137.806 24.5422 137.806 34.2607V61.7451H124.354V38.5635C124.353 32.51 121.788 29.4043 116.345 29.4043C115.062 29.4044 114.018 29.6466 112.9 29.9629V61.75H99.4482V21.916L112.9 20.4023V28.2119C114.819 24.1465 118.746 20.3232 125.79 20.3232L125.795 20.3184ZM27.9688 0C40.3868 0 48.8678 7.25562 51.9473 11.2422V61.749H38.3945V17.6973C38.3945 17.6973 35.1244 8.17877 24.0312 8.17871C19.065 8.17871 14.6817 11.5063 14.6816 15.8145C14.6816 20.9715 18.5294 24.6629 25.1914 24.6631H29.999V32.5889H19.4893V61.749H5.93652V32.5889H0V24.7363L5.92578 24.7158C2.33232 12.5085 12.1799 0.000213027 27.9688 0ZM161.194 21.1191H172.002V28.291H161.194V61.749H147.743V28.291H141.494V21.1191H147.743V10.7627L161.194 9.16992V21.1191ZM75.7354 26.6191C71.8133 26.6192 68.9297 30.5216 68.9297 36.2588H81.5811C82.1428 29.1664 79.3394 26.6191 75.7354 26.6191Z" fill="white"/>
</g>
</g>
</svg>
