<svg preserveAspectRatio="none" width="100%" height="100%" overflow="visible" style="display: block;" viewBox="0 0 41 14.9092" fill="none" xmlns="http://www.w3.org/2000/svg">
<path id="Union" d="M18.3389 4.84473C21.1638 4.84474 22.3852 6.47748 22.5381 8.05371C22.557 8.16805 22.5576 8.28117 22.5576 8.39551L16.6602 10.1611C17.2514 11.8895 18.8732 12.4023 20.0381 12.4023C21.1067 12.4023 22.0413 12.0983 22.5947 11.6045C22.4039 13.6181 21.0094 14.9092 18.3955 14.9092C15.7816 14.9091 13.5293 13.0097 13.5293 10.0283C13.5293 6.85698 15.7236 4.84473 18.3389 4.84473ZM29.9863 4.84375C31.5705 4.84389 32.8486 5.85055 32.8486 8.16699V14.7178H29.6426V9.19238C29.6426 7.74943 29.0309 7.0088 27.7334 7.00879C27.4277 7.00879 27.1787 7.06716 26.9121 7.14258V14.7197H23.7061V5.22461L26.9121 4.86328V6.72461C27.3695 5.75567 28.3057 4.84486 29.9844 4.84473L29.9863 4.84375ZM6.66699 0C9.62686 0 11.6486 1.72937 12.3828 2.67969V14.7188H9.15234V4.21875C9.15234 4.21875 8.37279 1.94922 5.72852 1.94922C4.54487 1.94929 3.50016 2.74275 3.5 3.76953C3.5 4.99873 4.41709 5.87873 6.00488 5.87891H7.15137V7.76855H4.64551V14.7188H1.41504V7.76855H0V5.89648L1.41309 5.8916C0.556536 2.98181 2.90357 0.000200692 6.66699 0ZM38.4238 5.03418H41V6.74414H38.4238V14.7188H35.2178V6.74414H33.7285V5.03418H35.2178V2.56543L38.4238 2.18555V5.03418ZM18.0537 6.3457C17.1189 6.3457 16.4308 7.27526 16.4307 8.64258H19.4473C19.581 6.95262 18.9125 6.3459 18.0537 6.3457Z" fill="var(--fill-0, black)" fill-opacity="0.2"/>
</svg>
