<svg width="16" height="16" viewBox="0 0 16 16" fill="none" xmlns="http://www.w3.org/2000/svg">
<path d="M11.3333 6.00016V4.66683C11.3333 4.31321 11.1929 3.97407 10.9428 3.72402C10.6928 3.47397 10.3536 3.3335 10 3.3335H3.33333C2.97971 3.3335 2.64057 3.47397 2.39052 3.72402C2.14048 3.97407 2 4.31321 2 4.66683V8.66683C2 9.02045 2.14048 9.35959 2.39052 9.60964C2.64057 9.85969 2.97971 10.0002 3.33333 10.0002H4.66667M6 12.6668H12.6667C13.0203 12.6668 13.3594 12.5264 13.6095 12.2763C13.8595 12.0263 14 11.6871 14 11.3335V7.3335C14 6.97987 13.8595 6.64074 13.6095 6.39069C13.3594 6.14064 13.0203 6.00016 12.6667 6.00016H6C5.64638 6.00016 5.30724 6.14064 5.05719 6.39069C4.80714 6.64074 4.66667 6.97987 4.66667 7.3335V11.3335C4.66667 11.6871 4.80714 12.0263 5.05719 12.2763C5.30724 12.5264 5.64638 12.6668 6 12.6668ZM10.6667 9.3335C10.6667 9.68712 10.5262 10.0263 10.2761 10.2763C10.0261 10.5264 9.68696 10.6668 9.33333 10.6668C8.97971 10.6668 8.64057 10.5264 8.39052 10.2763C8.14048 10.0263 8 9.68712 8 9.3335C8 8.97987 8.14048 8.64074 8.39052 8.39069C8.64057 8.14064 8.97971 8.00016 9.33333 8.00016C9.68696 8.00016 10.0261 8.14064 10.2761 8.39069C10.5262 8.64074 10.6667 8.97987 10.6667 9.3335Z" stroke="#3F3F46" stroke-linecap="round" stroke-linejoin="round"/>
</svg>
