<svg viewBox="84.5 100.6 391.4 116.8" xmlns="http://www.w3.org/2000/svg">
  <g fill="#000">
    <path d="M136.4,100.7c-29.3,0-47.6,23.3-40.9,46.1h-11s0,14.7,0,14.7h11s0,54.4,0,54.4h25.2s0-54.4,0-54.4h19.5s0-14.8,0-14.8h-8.9c-12.4,0-19.5-6.9-19.5-16.5,0-8,8.1-14.3,17.4-14.3,20.6,0,26.7,17.8,26.7,17.8v82.2s25.2,0,25.2,0v-94.3c-5.7-7.4-21.5-21-44.5-21"/>
    <path d="M214.2,180.2l45.9-13.8c0-.9,0-1.8-.1-2.7-1.2-12.3-10.7-25.1-32.7-25.1-20.4,0-37.5,15.8-37.5,40.6,0,23.3,17.5,38.2,37.9,38.2,19.8,0,31.2-10.1,32.7-25.9-4.3,3.9-11.6,6.2-19.9,6.2-9.1,0-21.7-4-26.3-17.5M225,150.3c6.7,0,11.9,4.8,10.9,18h-23.5c0-10.7,5.4-18,12.6-18"/>
    <path d="M318,138.6c-13.1,0-20.4,7.1-23.9,14.7v-14.6s-25,2.8-25,2.8v74.3s25,0,25,0v-59.3c2.1-.6,4-1,6.4-1,10.1,0,14.9,5.8,14.9,17.1v43.3s25,0,25,0v-51.3c0-18.1-10-26-22.3-26"/>
    <polygon points="383.7 140.1 383.7 117.8 358.7 120.7 358.7 140.1 347.1 140.1 347.1 153.4 358.7 153.4 358.7 215.9 383.7 215.9 383.7 153.4 403.8 153.4 403.8 140.1 383.7 140.1"/>
    <path d="M445.6,121.5l30.3-3.6v98h-21.4v-85l-8.9-9.4Z"/>
    <path d="M407.8,121.5l30.3-3.6v98h-21.4v-85l-8.9-9.4Z"/>
  </g>
</svg>
