<svg preserveAspectRatio="none" width="100%" height="100%" overflow="visible" style="display: block;" viewBox="0 0 102.4 42.5328" fill="none" xmlns="http://www.w3.org/2000/svg">
<g id="Frame 18143716">
<rect width="102.4" height="42.5328" rx="21.2664" fill="var(--fill-0, #1C1C1C)"/>
<path id="Union" d="M48.2811 17.742C52.0958 17.742 53.7455 19.9475 53.952 22.076C53.9775 22.2302 53.9773 22.3827 53.9773 22.5369L46.0135 24.9217C46.8119 27.2556 49.003 27.949 50.576 27.949C52.0192 27.949 53.2819 27.5379 54.0291 26.8709C53.7714 29.5899 51.8877 31.3327 48.3582 31.3328C44.8284 31.3328 41.7859 28.7682 41.7859 24.742C41.786 20.4596 44.7496 17.742 48.2811 17.742ZM64.0096 17.741C66.1487 17.7412 67.8747 19.1004 67.8748 22.2283V31.075H63.5447V23.6131C63.5446 21.6649 62.7193 20.665 60.9676 20.6648C60.5547 20.6648 60.2182 20.7437 59.8582 20.8455V31.077H55.5281V18.2547L59.8582 17.7674V20.282C60.4758 18.9733 61.7403 17.742 64.0076 17.742L64.0096 17.741ZM75.4041 17.9979H78.8826V20.3064H75.4041V31.077H71.074V20.3064H69.0623V17.9979H71.074V14.6648L75.4041 14.1521V17.9979ZM32.5203 11.2C36.5176 11.2 39.2478 13.5359 40.2391 14.8191V31.076H35.8758V16.8963C35.8645 16.8638 34.8044 13.8328 31.2527 13.8328C29.6542 13.8329 28.243 14.9041 28.243 16.2908C28.2431 17.9507 29.4824 19.1385 31.6268 19.1385H33.1736V21.6902H29.7908V31.076H25.4285V21.6902H23.5174V19.1629L25.4246 19.1561C24.2679 15.2266 27.438 11.2001 32.5203 11.2ZM47.8953 19.7693C46.6329 19.7695 45.7049 21.0252 45.7049 22.8719H49.7771C49.958 20.5889 49.0554 19.7693 47.8953 19.7693Z" fill="var(--fill-0, white)"/>
</g>
</svg>
