<svg preserveAspectRatio="none" width="100%" height="100%" overflow="visible" style="display: block;" viewBox="0 0 144.001 151.04" fill="none" xmlns="http://www.w3.org/2000/svg">
<g id="Ellipse 1029">
<mask id="path-1-inside-1_0_98" fill="white">
</mask>
<g clip-path="url(#paint0_angular_0_98_clip_path)" data-figma-skip-parse="true" mask="url(#path-1-inside-1_0_98)"><g transform="matrix(0 0.07232 -0.0688 0 72.0008 75.52)"><foreignObject x="-1093.02" y="-1093.02" width="2186.05" height="2186.05"><div xmlns="http://www.w3.org/1999/xhtml" style="background:conic-gradient(from 90deg,rgba(103, 195, 230, 1) 0deg,rgba(142, 244, 122, 1) 64.6064deg,rgba(255, 147, 142, 1) 179.788deg,rgba(254, 218, 77, 1) 278.116deg,rgba(97, 187, 249, 1) 348.714deg,rgba(103, 195, 230, 1) 360deg);height:100%;width:100%;opacity:1"></div></foreignObject></g></g><path d="M68.6416 0C66.8743 0 65.4416 1.43269 65.4416 3.2C65.4416 4.96731 66.8743 6.4 68.6416 6.4V3.2V0ZM105.412 13.2936L107.045 10.5418V10.5418L105.412 13.2936ZM131.918 40.757L134.725 39.2214L134.725 39.2214L131.918 40.757ZM129.473 114.42L132.172 116.138V116.138L129.473 114.42ZM101.205 140.057L102.651 142.912V142.912L101.205 140.057ZM63.8469 147.68L64.06 144.487H64.06L63.8469 147.68ZM27.8275 135.16L29.6402 132.523H29.6402L27.8275 135.16ZM6.10398 104.647C5.36068 103.043 3.4583 102.346 1.8549 103.089C0.251499 103.832 -0.445746 105.735 0.297557 107.338L3.20077 105.992L6.10398 104.647ZM68.6416 3.2V6.4C81.0043 6.4 93.1401 9.73121 103.778 16.0454L105.412 13.2936L107.045 10.5418C95.4187 3.64123 82.1546 0 68.6416 0V3.2ZM105.412 13.2936L103.778 16.0454C114.416 22.3596 123.166 31.4248 129.11 42.2925L131.918 40.757L134.725 39.2214C128.231 27.3483 118.671 17.4424 107.045 10.5418L105.412 13.2936ZM131.918 40.757L129.11 42.2925C135.054 53.1603 137.974 65.4303 137.563 77.8179L140.761 77.924L143.959 78.0301C144.408 64.4986 141.219 51.0945 134.725 39.2214L131.918 40.757ZM140.761 77.924L137.563 77.8179C137.152 90.2053 133.425 102.254 126.774 112.701L129.473 114.42L132.172 116.138C139.439 104.724 143.51 91.5617 143.959 78.0301L140.761 77.924ZM129.473 114.42L126.774 112.701C120.122 123.149 110.791 131.611 99.7581 137.203L101.205 140.057L102.651 142.912C114.709 136.801 124.905 127.553 132.172 116.138L129.473 114.42ZM101.205 140.057L99.7581 137.203C88.7251 142.795 76.3954 145.311 64.06 144.487L63.8469 147.68L63.6338 150.873C77.117 151.773 90.5932 149.023 102.651 142.912L101.205 140.057ZM63.8469 147.68L64.06 144.487C51.7246 143.664 39.8364 139.532 29.6402 132.523L27.8275 135.16L26.0148 137.797C37.1575 145.457 50.1507 149.973 63.6338 150.873L63.8469 147.68ZM27.8275 135.16L29.6402 132.523C19.4439 125.514 11.3145 115.886 6.10398 104.647L3.20077 105.992L0.297557 107.338C5.98993 119.617 14.8721 130.138 26.0148 137.797L27.8275 135.16Z" data-figma-gradient-fill="{&#34;type&#34;:&#34;GRADIENT_ANGULAR&#34;,&#34;stops&#34;:[{&#34;color&#34;:{&#34;r&#34;:0.55686277151107788,&#34;g&#34;:0.95686274766921997,&#34;b&#34;:0.47843137383460999,&#34;a&#34;:1.0},&#34;position&#34;:0.17946226894855499},{&#34;color&#34;:{&#34;r&#34;:1.0,&#34;g&#34;:0.57647061347961426,&#34;b&#34;:0.55686277151107788,&#34;a&#34;:1.0},&#34;position&#34;:0.49941074848175049},{&#34;color&#34;:{&#34;r&#34;:0.99607843160629272,&#34;g&#34;:0.85490196943283081,&#34;b&#34;:0.30196079611778259,&#34;a&#34;:1.0},&#34;position&#34;:0.77254503965377808},{&#34;color&#34;:{&#34;r&#34;:0.38039216399192810,&#34;g&#34;:0.73333334922790527,&#34;b&#34;:0.97647058963775635,&#34;a&#34;:1.0},&#34;position&#34;:0.96865069866180420}],&#34;stopsVar&#34;:[{&#34;color&#34;:{&#34;r&#34;:0.55686277151107788,&#34;g&#34;:0.95686274766921997,&#34;b&#34;:0.47843137383460999,&#34;a&#34;:1.0},&#34;position&#34;:0.17946226894855499},{&#34;color&#34;:{&#34;r&#34;:1.0,&#34;g&#34;:0.57647061347961426,&#34;b&#34;:0.55686277151107788,&#34;a&#34;:1.0},&#34;position&#34;:0.49941074848175049},{&#34;color&#34;:{&#34;r&#34;:0.99607843160629272,&#34;g&#34;:0.85490196943283081,&#34;b&#34;:0.30196079611778259,&#34;a&#34;:1.0},&#34;position&#34;:0.77254503965377808},{&#34;color&#34;:{&#34;r&#34;:0.38039216399192810,&#34;g&#34;:0.73333334922790527,&#34;b&#34;:0.97647058963775635,&#34;a&#34;:1.0},&#34;position&#34;:0.96865069866180420}],&#34;transform&#34;:{&#34;m00&#34;:8.4255705575441917e-15,&#34;m01&#34;:-137.60000610351562,&#34;m02&#34;:140.800781250,&#34;m10&#34;:144.63999938964844,&#34;m11&#34;:8.8566459531926392e-15,&#34;m12&#34;:3.2000000476837158},&#34;opacity&#34;:1.0,&#34;blendMode&#34;:&#34;NORMAL&#34;,&#34;visible&#34;:true}" mask="url(#path-1-inside-1_0_98)"/>
</g>
<defs>
<clipPath id="paint0_angular_0_98_clip_path"><path d="M68.6416 0C66.8743 0 65.4416 1.43269 65.4416 3.2C65.4416 4.96731 66.8743 6.4 68.6416 6.4V3.2V0ZM105.412 13.2936L107.045 10.5418V10.5418L105.412 13.2936ZM131.918 40.757L134.725 39.2214L134.725 39.2214L131.918 40.757ZM129.473 114.42L132.172 116.138V116.138L129.473 114.42ZM101.205 140.057L102.651 142.912V142.912L101.205 140.057ZM63.8469 147.68L64.06 144.487H64.06L63.8469 147.68ZM27.8275 135.16L29.6402 132.523H29.6402L27.8275 135.16ZM6.10398 104.647C5.36068 103.043 3.4583 102.346 1.8549 103.089C0.251499 103.832 -0.445746 105.735 0.297557 107.338L3.20077 105.992L6.10398 104.647ZM68.6416 3.2V6.4C81.0043 6.4 93.1401 9.73121 103.778 16.0454L105.412 13.2936L107.045 10.5418C95.4187 3.64123 82.1546 0 68.6416 0V3.2ZM105.412 13.2936L103.778 16.0454C114.416 22.3596 123.166 31.4248 129.11 42.2925L131.918 40.757L134.725 39.2214C128.231 27.3483 118.671 17.4424 107.045 10.5418L105.412 13.2936ZM131.918 40.757L129.11 42.2925C135.054 53.1603 137.974 65.4303 137.563 77.8179L140.761 77.924L143.959 78.0301C144.408 64.4986 141.219 51.0945 134.725 39.2214L131.918 40.757ZM140.761 77.924L137.563 77.8179C137.152 90.2053 133.425 102.254 126.774 112.701L129.473 114.42L132.172 116.138C139.439 104.724 143.51 91.5617 143.959 78.0301L140.761 77.924ZM129.473 114.42L126.774 112.701C120.122 123.149 110.791 131.611 99.7581 137.203L101.205 140.057L102.651 142.912C114.709 136.801 124.905 127.553 132.172 116.138L129.473 114.42ZM101.205 140.057L99.7581 137.203C88.7251 142.795 76.3954 145.311 64.06 144.487L63.8469 147.68L63.6338 150.873C77.117 151.773 90.5932 149.023 102.651 142.912L101.205 140.057ZM63.8469 147.68L64.06 144.487C51.7246 143.664 39.8364 139.532 29.6402 132.523L27.8275 135.16L26.0148 137.797C37.1575 145.457 50.1507 149.973 63.6338 150.873L63.8469 147.68ZM27.8275 135.16L29.6402 132.523C19.4439 125.514 11.3145 115.886 6.10398 104.647L3.20077 105.992L0.297557 107.338C5.98993 119.617 14.8721 130.138 26.0148 137.797L27.8275 135.16Z"/></clipPath></defs>
</svg>
