<svg preserveAspectRatio="xMidYMid meet" width="271.5" height="7.36396" overflow="visible" style="display: block;" viewBox="0 0 271.5 7.36396" fill="none" xmlns="http://www.w3.org/2000/svg">
<path id="Vector 9" d="M271.354 4.03553C271.549 3.84027 271.549 3.52369 271.354 3.32843L268.172 0.146447C267.976 -0.0488155 267.66 -0.0488155 267.464 0.146447C267.269 0.341709 267.269 0.658291 267.464 0.853554L270.293 3.68198L267.464 6.51041C267.269 6.70567 267.269 7.02225 267.464 7.21751C267.66 7.41278 267.976 7.41278 268.172 7.21751L271.354 4.03553ZM0 3.68198V4.18198H0.996324V3.68198V3.18198H0V3.68198ZM2.98897 3.68198V4.18198H4.98162V3.68198V3.18198H2.98897V3.68198ZM6.97427 3.68198V4.18198H8.96691V3.68198V3.18198H6.97427V3.68198ZM10.9596 3.68198V4.18198H12.9522V3.68198V3.18198H10.9596V3.68198ZM14.9449 3.68198V4.18198H16.9375V3.68198V3.18198H14.9449V3.68198ZM18.9301 3.68198V4.18198H20.9228V3.68198V3.18198H18.9301V3.68198ZM22.9154 3.68198V4.18198H24.9081V3.68198V3.18198H22.9154V3.68198ZM26.9007 3.68198V4.18198H28.8934V3.68198V3.18198H26.9007V3.68198ZM30.886 3.68198V4.18198H32.8787V3.68198V3.18198H30.886V3.68198ZM34.8713 3.68198V4.18198H36.864V3.68198V3.18198H34.8713V3.68198ZM38.8566 3.68198V4.18198H40.8493V3.68198V3.18198H38.8566V3.68198ZM42.8419 3.68198V4.18198H44.8345V3.68198V3.18198H42.8419V3.68198ZM46.8272 3.68198V4.18198H48.8198V3.68198V3.18198H46.8272V3.68198ZM50.8125 3.68198V4.18198H52.8051V3.68198V3.18198H50.8125V3.68198ZM54.7978 3.68198V4.18198H56.7904V3.68198V3.18198H54.7978V3.68198ZM58.7831 3.68198V4.18198H60.7757V3.68198V3.18198H58.7831V3.68198ZM62.7684 3.68198V4.18198H64.761V3.68198V3.18198H62.7684V3.68198ZM66.7536 3.68198V4.18198H68.7463V3.68198V3.18198H66.7536V3.68198ZM70.7389 3.68198V4.18198H72.7316V3.68198V3.18198H70.7389V3.68198ZM74.7242 3.68198V4.18198H76.7169V3.68198V3.18198H74.7242V3.68198ZM78.7095 3.68198V4.18198H80.7022V3.68198V3.18198H78.7095V3.68198ZM82.6948 3.68198V4.18198H84.6875V3.68198V3.18198H82.6948V3.68198ZM86.6801 3.68198V4.18198H88.6727V3.68198V3.18198H86.6801V3.68198ZM90.6654 3.68198V4.18198H92.658V3.68198V3.18198H90.6654V3.68198ZM94.6507 3.68198V4.18198H96.6433V3.68198V3.18198H94.6507V3.68198ZM98.636 3.68198V4.18198H100.629V3.68198V3.18198H98.636V3.68198ZM102.621 3.68198V4.18198H104.614V3.68198V3.18198H102.621V3.68198ZM106.607 3.68198V4.18198H108.599V3.68198V3.18198H106.607V3.68198ZM110.592 3.68198V4.18198H112.584V3.68198V3.18198H110.592V3.68198ZM114.577 3.68198V4.18198H116.57V3.68198V3.18198H114.577V3.68198ZM118.562 3.68198V4.18198H120.555V3.68198V3.18198H118.562V3.68198ZM122.548 3.68198V4.18198H124.54V3.68198V3.18198H122.548V3.68198ZM126.533 3.68198V4.18198H128.526V3.68198V3.18198H126.533V3.68198ZM130.518 3.68198V4.18198H132.511V3.68198V3.18198H130.518V3.68198ZM134.504 3.68198V4.18198H136.496V3.68198V3.18198H134.504V3.68198ZM138.489 3.68198V4.18198H140.482V3.68198V3.18198H138.489V3.68198ZM142.474 3.68198V4.18198H144.467V3.68198V3.18198H142.474V3.68198ZM146.459 3.68198V4.18198H148.452V3.68198V3.18198H146.459V3.68198ZM150.445 3.68198V4.18198H152.437V3.68198V3.18198H150.445V3.68198ZM154.43 3.68198V4.18198H156.423V3.68198V3.18198H154.43V3.68198ZM158.415 3.68198V4.18198H160.408V3.68198V3.18198H158.415V3.68198ZM162.401 3.68198V4.18198H164.393V3.68198V3.18198H162.401V3.68198ZM166.386 3.68198V4.18198H168.379V3.68198V3.18198H166.386V3.68198ZM170.371 3.68198V4.18198H172.364V3.68198V3.18198H170.371V3.68198ZM174.356 3.68198V4.18198H176.349V3.68198V3.18198H174.356V3.68198ZM178.342 3.68198V4.18198H180.334V3.68198V3.18198H178.342V3.68198ZM182.327 3.68198V4.18198H184.32V3.68198V3.18198H182.327V3.68198ZM186.312 3.68198V4.18198H188.305V3.68198V3.18198H186.312V3.68198ZM190.298 3.68198V4.18198H192.29V3.68198V3.18198H190.298V3.68198ZM194.283 3.68198V4.18198H196.276V3.68198V3.18198H194.283V3.68198ZM198.268 3.68198V4.18198H200.261V3.68198V3.18198H198.268V3.68198ZM202.254 3.68198V4.18198H204.246V3.68198V3.18198H202.254V3.68198ZM206.239 3.68198V4.18198H208.231V3.68198V3.18198H206.239V3.68198ZM210.224 3.68198V4.18198H212.217V3.68198V3.18198H210.224V3.68198ZM214.209 3.68198V4.18198H216.202V3.68198V3.18198H214.209V3.68198ZM218.195 3.68198V4.18198H220.187V3.68198V3.18198H218.195V3.68198ZM222.18 3.68198V4.18198H224.173V3.68198V3.18198H222.18V3.68198ZM226.165 3.68198V4.18198H228.158V3.68198V3.18198H226.165V3.68198ZM230.151 3.68198V4.18198H232.143V3.68198V3.18198H230.151V3.68198ZM234.136 3.68198V4.18198H236.128V3.68198V3.18198H234.136V3.68198ZM238.121 3.68198V4.18198H240.114V3.68198V3.18198H238.121V3.68198ZM242.106 3.68198V4.18198H244.099V3.68198V3.18198H242.106V3.68198ZM246.092 3.68198V4.18198H248.084V3.68198V3.18198H246.092V3.68198ZM250.077 3.68198V4.18198H252.07V3.68198V3.18198H250.077V3.68198ZM254.062 3.68198V4.18198H256.055V3.68198V3.18198H254.062V3.68198ZM258.048 3.68198V4.18198H260.04V3.68198V3.18198H258.048V3.68198ZM262.033 3.68198V4.18198H264.026V3.68198V3.18198H262.033V3.68198ZM266.018 3.68198V4.18198H268.011V3.68198V3.18198H266.018V3.68198ZM270.003 3.68198V4.18198H271V3.68198V3.18198H270.003V3.68198Z" fill="white" fill-opacity="0.7"/>
</svg>
